<?xml version="1.0" encoding="UTF-8"?>
<svg xmlns="http://www.w3.org/2000/svg" height="1000" width="1000"><path d="M785.664 517.888v178.56q0 66.402 -47.151 113.553t-113.553 47.151h-464.256q-66.402 0 -113.553 -47.151t-47.151 -113.553v-464.256q0 -66.402 47.151 -113.553t113.553 -47.151h392.832q7.812 0 12.834 5.022t5.022 12.834v35.712q0 7.812 -5.022 12.834t-12.834 5.022h-392.832q-36.828 0 -63.054 26.226t-26.226 63.054v464.256q0 36.828 26.226 63.054t63.054 26.226h464.256q36.828 0 63.054 -26.226t26.226 -63.054v-178.56q0 -7.812 5.022 -12.834t12.834 -5.022h35.712q7.812 0 12.834 5.022t5.022 12.834zm214.272 -482.112v285.696q0 14.508 -10.602 25.11t-25.11 10.602 -25.11 -10.602l-98.208 -98.208 -363.816 363.816q-5.58 5.58 -12.834 5.58t-12.834 -5.58l-63.612 -63.612q-5.58 -5.58 -5.58 -12.834t5.58 -12.834l363.816 -363.816 -98.208 -98.208q-10.602 -10.602 -10.602 -25.11t10.602 -25.11 25.11 -10.602h285.696q14.508 0 25.11 10.602t10.602 25.11z" fill="#000000"/></svg>
